<svg width="30" height="30" viewBox="0 0 30 30" fill="none" xmlns="http://www.w3.org/2000/svg">
    <g clip-path="url(#clip0_11_31)">
        <path d="M30 3.75H5.3025L5.25 3.31125C5.14256 2.39927 4.70423 1.55842 4.01811 0.948097C3.33199 0.337779 2.44578 0.000427242 1.5275 0L0 0V2.5H1.5275C1.83367 2.50004 2.12917 2.61245 2.35797 2.81589C2.58676 3.01934 2.73293 3.29969 2.76875 3.60375L4.75 20.4387C4.85744 21.3507 5.29577 22.1916 5.98189 22.8019C6.66801 23.4122 7.55422 23.7496 8.4725 23.75H25V21.25H8.4725C8.16614 21.2499 7.87048 21.1373 7.64166 20.9336C7.41283 20.7299 7.26679 20.4493 7.23125 20.145L7.0675 18.75H27.295L30 3.75ZM25.205 16.25H6.77375L5.5975 6.25H27.0088L25.205 16.25Z" fill="#ffffff"/>
        <path d="M8.75018 30.0008C10.1309 30.0008 11.2502 28.8815 11.2502 27.5008C11.2502 26.1201 10.1309 25.0008 8.75018 25.0008C7.36947 25.0008 6.25018 26.1201 6.25018 27.5008C6.25018 28.8815 7.36947 30.0008 8.75018 30.0008Z" fill="#ffffff"/>
        <path d="M21.25 30.0008C22.6307 30.0008 23.75 28.8815 23.75 27.5008C23.75 26.1201 22.6307 25.0008 21.25 25.0008C19.8693 25.0008 18.75 26.1201 18.75 27.5008C18.75 28.8815 19.8693 30.0008 21.25 30.0008Z" fill="#ffffff"/>
    </g>
    <defs>
        <clipPath id="clip0_11_31">
            <rect width="30" height="30" fill="white"/>
        </clipPath>
    </defs>
</svg>
