<svg width="32" height="32" viewBox="0 0 32 32" xmlns="http://www.w3.org/2000/svg">
    <path
            d="M3 7C3 5.9 3.9 5 5 5H19C20.1 5 21 5.9 21 7V9C19.9 9 19 9.9 19 11C19 12.1 19.9 13 21 13V17C21 18.1 20.1 19 19 19H5C3.9 19 3 18.1 3 17V13C4.1 13 5 12.1 5 11C5 9.9 4.1 9 3 9V7Z"
            fill="#f7a1c4"
    />

    <!-- dấu % -->
    <circle cx="9" cy="9" r="1.2" fill="white"/>
    <circle cx="15" cy="15" r="1.2" fill="white"/>
    <line x1="9" y1="15" x2="15" y2="9" stroke="white" stroke-width="1.6" stroke-linecap="round"/>
</svg>